<?xml version="1.0" standalone="no"?>
<!DOCTYPE svg PUBLIC "-//W3C//DTD SVG 20010904//EN"
 "http://www.w3.org/TR/2001/REC-SVG-20010904/DTD/svg10.dtd">
<svg version="1.0" xmlns="http://www.w3.org/2000/svg"
 width="557.000000pt" height="587.000000pt" viewBox="0 0 557.000000 587.000000"
 preserveAspectRatio="xMidYMid meet">

<g transform="translate(0.000000,587.000000) scale(0.100000,-0.100000)"
fill="#000000" stroke="none">
<path d="M12 4583 l3 -1278 23 -65 c59 -162 201 -293 371 -344 85 -25 240 -21
323 8 95 34 137 65 420 316 139 124 372 330 518 460 146 129 280 248 298 265
l33 31 -73 40 c-40 23 -275 151 -523 285 -247 134 -453 248 -457 254 -16 22
-6 44 38 88 25 25 44 50 41 54 -10 16 64 12 115 -6 162 -59 560 -181 569 -175
7 4 9 3 6 -3 -5 -7 423 -154 490 -168 10 -2 39 -12 64 -23 l47 -20 36 37 c20
20 33 41 29 46 -5 4 -3 5 3 2 12 -7 168 145 159 156 -3 4 -2 5 2 2 10 -8 63
47 56 58 -3 6 -2 7 4 4 5 -3 27 13 49 35 21 23 30 36 19 28 -18 -14 -19 -14
-6 2 7 10 16 16 20 14 3 -2 22 9 41 26 34 28 34 30 16 44 -23 17 -14 19 12 3
15 -9 26 -7 58 13 21 13 54 30 71 37 18 7 30 18 26 24 -3 5 -2 7 4 4 13 -8
236 47 227 56 -4 4 -2 7 4 7 7 0 12 -7 12 -15 0 -8 5 -15 10 -15 7 0 7 -7 0
-21 -7 -11 -9 -39 -6 -62 4 -27 3 -35 -2 -22 -8 17 -10 13 -17 -20 -5 -22 -9
-44 -9 -50 -1 -5 -3 -12 -6 -15 -13 -12 -45 -95 -42 -108 2 -9 -1 -11 -9 -6
-9 5 -10 2 -6 -10 4 -10 3 -15 -3 -11 -6 3 -14 -4 -19 -17 -6 -13 -35 -52 -65
-87 -30 -35 -52 -69 -49 -74 4 -6 1 -7 -6 -3 -7 5 -21 0 -32 -10 -23 -21 -25
-34 -4 -34 8 0 15 -5 15 -10 0 -7 -7 -7 -20 0 -23 12 -44 4 -34 -12 4 -7 2 -8
-4 -4 -13 8 -165 -132 -157 -144 3 -4 -1 -7 -9 -6 -7 0 -36 -20 -64 -46 l-50
-47 24 -88 c13 -48 28 -99 33 -113 5 -14 24 -77 41 -140 18 -63 35 -119 38
-125 4 -5 8 -21 10 -34 2 -13 27 -105 57 -204 30 -100 55 -188 55 -195 0 -7 5
-10 12 -6 7 4 8 3 4 -4 -4 -7 15 -88 43 -180 45 -153 58 -218 41 -207 -4 2
-29 -18 -55 -45 -49 -50 -83 -62 -102 -37 -6 6 -128 246 -273 532 -144 286
-265 523 -269 527 -4 4 -306 -293 -672 -660 -660 -661 -714 -720 -884 -957
-299 -416 -523 -964 -615 -1500 -24 -138 -50 -414 -50 -527 l0 -78 1995 0
c1300 0 2030 4 2093 10 308 33 587 144 834 332 70 53 113 94 77 73 -8 -5 -11
-4 -6 1 5 5 12 9 15 9 20 1 53 28 48 40 -3 9 0 12 9 9 13 -5 42 33 37 49 -1 5
2 6 8 2 6 -3 21 6 34 22 13 15 33 39 45 52 11 13 18 28 14 34 -3 6 -1 7 5 3
13 -8 35 28 24 39 -4 3 -1 5 6 3 28 -6 210 326 215 393 1 10 4 19 8 19 10 0
41 120 35 136 -3 8 -2 13 2 10 11 -7 29 73 43 191 16 137 6 393 -21 518 -30
141 -71 260 -82 243 -7 -9 -8 -6 -5 10 7 30 -20 95 -35 86 -6 -4 -8 -3 -5 4 8
11 -33 112 -45 112 -11 0 -10 -18 2 -25 12 -8 13 -45 1 -45 -5 0 -7 9 -4 20 3
12 0 20 -7 20 -8 0 -10 9 -6 26 5 17 0 37 -15 62 -30 50 -29 49 -45 28 -8 -11
-14 -15 -14 -9 0 7 4 15 10 18 16 10 12 30 -14 58 -13 14 -34 40 -47 59 -13
18 -42 53 -66 77 -39 42 -41 43 -39 18 2 -15 -1 -24 -5 -21 -5 3 -7 16 -5 28
6 33 -8 49 -45 51 -26 1 -33 6 -35 26 -1 13 0 18 3 11 2 -7 14 -17 26 -23 21
-11 20 -10 -2 15 -14 14 -30 26 -38 26 -7 0 -13 6 -13 13 0 24 -223 182 -241
171 -5 -3 -8 0 -7 6 2 7 -7 16 -20 21 -17 6 -21 6 -17 -4 4 -6 0 -4 -9 7 -8
10 -20 15 -27 10 -7 -4 -10 -3 -5 4 4 6 -7 17 -26 25 -18 8 -49 21 -68 30
-134 58 -321 106 -483 122 -64 7 -67 8 -52 25 13 14 13 19 3 24 -7 3 -3 3 8 1
16 -4 33 4 59 29 20 19 38 35 41 35 2 1 7 1 11 1 4 0 -1 6 -12 13 -13 10 -15
16 -6 21 6 4 9 11 6 16 -3 4 2 7 10 6 16 -2 21 -21 6 -21 -5 0 -13 -3 -17 -7
-4 -5 2 -8 13 -8 23 0 47 23 35 34 -4 4 0 6 8 4 8 -2 14 3 13 10 -2 6 2 12 8
12 5 0 7 5 4 10 -4 6 -2 9 3 8 10 -3 72 60 72 73 0 4 -11 10 -25 13 -20 5 -25
13 -25 37 0 33 -30 74 -38 51 -6 -18 -42 -15 -42 3 0 20 -45 65 -65 65 -8 0
-15 9 -15 20 0 11 -4 20 -10 20 -5 0 -10 9 -10 20 0 13 -7 20 -20 20 -13 0
-20 7 -20 20 0 11 -4 20 -10 20 -5 0 -10 9 -10 20 0 13 -7 20 -20 20 -13 0
-20 7 -20 20 0 13 -7 20 -20 20 -13 0 -20 7 -20 20 0 13 -7 20 -20 20 -13 0
-20 7 -20 20 0 13 -7 20 -20 20 -13 0 -20 7 -20 20 0 11 -4 20 -10 20 -5 0
-10 9 -10 19 0 11 -5 21 -12 23 -14 5 -12 191 2 196 24 9 2 406 -25 459 l-12
24 -8 -23 -8 -23 -4 25 c-8 40 -32 60 -75 60 -38 0 -38 0 -38 40 l0 40 -40 0
-40 0 0 40 0 40 -40 0 -40 0 0 40 0 40 -40 0 -40 0 0 60 c0 33 -4 60 -10 60
-5 0 -10 9 -10 20 0 16 -7 20 -30 20 -28 0 -30 2 -30 40 0 22 5 40 10 40 6 0
10 9 10 20 0 11 -4 20 -10 20 -5 0 -10 -9 -10 -20 0 -17 -7 -20 -40 -20 l-40
0 0 40 0 40 -40 0 c-40 0 -40 0 -40 39 0 31 -4 41 -20 46 -11 3 -20 11 -20 16
0 15 46 10 60 -6 7 -8 23 -15 35 -15 12 0 43 -18 68 -40 53 -47 73 -53 31 -9
-34 36 -74 59 -103 59 -11 0 -26 8 -33 18 -21 28 -110 79 -94 54 3 -5 -10 -4
-29 2 -37 12 -47 26 -17 26 12 0 11 4 -8 13 -28 15 -43 12 -20 -4 12 -8 9 -9
-10 -5 -14 3 -28 6 -32 6 -5 0 -8 7 -8 15 0 8 -5 15 -11 15 -5 0 -8 4 -5 9 3
5 -2 12 -11 16 -10 3 -19 1 -21 -4 -5 -15 -25 -14 -85 7 -46 15 -49 17 -24 20
16 2 39 -4 52 -12 26 -17 45 -21 45 -8 0 10 -96 53 -150 68 -59 15 -138 43
-173 60 -16 8 -40 14 -53 14 -13 0 -24 4 -24 8 0 4 -15 8 -34 9 -18 1 -47 8
-64 17 -17 9 -47 16 -67 16 -19 0 -35 5 -35 10 0 6 14 10 30 10 17 0 30 4 30
9 0 10 -71 17 -265 28 -139 8 -138 8 135 13 151 3 -291 7 -983 8 l-1257 2 2
-1277z m1835 1261 c-3 -3 -12 -4 -19 -1 -8 3 -5 6 6 6 11 1 17 -2 13 -5z
m1213 -924 c-13 -8 -12 -10 5 -11 11 -1 26 -2 34 -2 7 1 9 -3 4 -8 -5 -5 -25
-4 -48 3 -34 9 -37 12 -20 19 28 11 43 11 25 -1z m-7 -37 c-7 -2 -19 -2 -25 0
-7 3 -2 5 12 5 14 0 19 -2 13 -5z m-163 -43 c0 -5 -2 -10 -4 -10 -3 0 -8 5
-11 10 -3 6 -1 10 4 10 6 0 11 -4 11 -10z m-36 -24 c-3 -8 -15 -16 -27 -19
-21 -6 -21 -6 2 14 28 23 32 24 25 5z m323 -8 c-3 -8 -6 -5 -6 6 -1 11 2 17 5
13 3 -3 4 -12 1 -19z m-374 5 c-7 -2 -13 -12 -13 -20 0 -9 -3 -14 -6 -10 -10
10 4 37 18 36 10 0 10 -2 1 -6z m-57 -75 c4 -7 4 -10 -1 -6 -4 4 -17 3 -29 -3
-20 -10 -20 -10 -2 5 24 19 23 19 32 4z m424 -73 c0 -5 -5 -3 -10 5 -5 8 -10
20 -10 25 0 6 5 3 10 -5 5 -8 10 -19 10 -25z m-2190 21 c0 -2 -8 -10 -17 -17
-16 -13 -17 -12 -4 4 13 16 21 21 21 13z m2153 -46 c-3 -11 -10 -23 -16 -27
-5 -3 -8 -2 -5 3 3 5 8 17 11 27 9 24 16 22 10 -3z m-483 6 c0 -2 -8 -10 -17
-17 -16 -13 -17 -12 -4 4 13 16 21 21 21 13z m-79 -49 c-6 -8 -7 -18 -3 -22 4
-5 1 -5 -6 -1 -10 6 -10 11 -1 22 6 8 14 14 16 14 3 0 0 -6 -6 -13z m-67 -76
c3 -4 -7 -19 -22 -32 l-27 -24 23 26 c12 14 19 29 15 32 -3 4 -4 7 0 7 3 0 8
-4 11 -9z m556 -22 c-7 -11 -14 -18 -17 -15 -3 3 0 12 7 21 18 21 23 19 10 -6z
m10 -29 c-6 -11 -13 -20 -16 -20 -2 0 0 9 6 20 6 11 13 20 16 20 2 0 0 -9 -6
-20z m-30 -11 c0 -6 -4 -7 -10 -4 -5 3 -10 1 -10 -4 0 -6 -5 -11 -10 -11 -6 0
-5 8 2 19 12 19 28 19 28 0z m-943 -55 c-3 -3 -12 -4 -19 -1 -8 3 -5 6 6 6 11
1 17 -2 13 -5z m880 -16 c-3 -8 -6 -5 -6 6 -1 11 2 17 5 13 3 -3 4 -12 1 -19z
m-632 -38 c3 -5 1 -10 -4 -10 -6 0 -11 5 -11 10 0 6 2 10 4 10 3 0 8 -4 11
-10z m451 -132 c4 -7 3 -10 -1 -5 -5 4 -20 -3 -34 -15 l-26 -23 24 28 c28 31
28 31 37 15z m1310 -900 c4 -7 2 -8 -5 -4 -6 4 -18 3 -25 -3 -9 -8 -13 -7 -13
2 0 16 34 20 43 5z m-76 -48 c0 -5 -5 -10 -11 -10 -5 0 -7 5 -4 10 3 6 8 10
11 10 2 0 4 -4 4 -10z m249 -74 c-2 -2 -17 -6 -34 -10 -22 -5 -26 -4 -15 4 14
9 59 15 49 6z m56 -16 c-3 -5 -11 -10 -16 -10 -6 0 -7 5 -4 10 3 6 11 10 16
10 6 0 7 -4 4 -10z m165 -44 c0 -2 -9 -6 -20 -9 -11 -3 -18 -1 -14 4 5 9 34
13 34 5z m61 -33 c12 -16 12 -17 -2 -6 -9 7 -20 9 -24 5 -5 -4 -5 -1 -1 6 9
16 11 15 27 -5z m-81 3 c0 -3 -4 -8 -10 -11 -5 -3 -10 -1 -10 4 0 6 5 11 10
11 6 0 10 -2 10 -4z m162 -41 c0 -5 -5 -10 -11 -11 -8 -2 -7 -1 0 3 8 4 7 8
-2 15 -11 8 -11 9 -1 6 8 -2 14 -8 14 -13z m8 -35 c-8 -5 -19 -10 -25 -10 -5
0 -3 5 5 10 8 5 20 10 25 10 6 0 3 -5 -5 -10z m196 -75 c20 -14 33 -25 29 -25
-9 0 -75 40 -75 46 0 8 10 4 46 -21z m-23 -12 c3 -5 -5 -8 -18 -8 -13 0 -21 3
-18 8 2 4 10 7 18 7 8 0 16 -3 18 -7z m388 -353 c8 12 9 10 4 -9 -6 -19 -4
-23 8 -18 11 4 14 2 11 -8 -3 -7 -12 -16 -19 -19 -9 -3 -12 0 -8 10 3 7 1 14
-5 14 -6 0 -12 -6 -14 -12 -3 -7 -5 2 -5 20 0 21 3 28 9 20 6 -10 10 -10 19 2z
m63 -56 c5 -13 4 -14 -7 -6 -8 7 -18 8 -22 4 -5 -4 -5 -1 -1 6 10 17 23 15 30
-4z m29 -61 c-4 -10 -2 -14 5 -9 6 3 13 2 16 -3 4 -5 -1 -8 -9 -7 -20 3 -28
13 -20 25 10 17 15 13 8 -6z m167 -356 c0 -7 -4 -6 -10 3 -8 13 -10 12 -10 -4
0 -11 -3 -17 -6 -13 -4 3 -4 13 0 22 6 18 26 11 26 -8z m50 -219 c0 -23 -3
-29 -9 -19 -8 12 -4 51 5 51 2 0 4 -15 4 -32z m27 -405 c-3 -10 -5 -2 -5 17 0
19 2 27 5 18 2 -10 2 -26 0 -35z m-146 -526 c-10 -9 -11 -8 -5 6 3 10 9 15 12
12 3 -3 0 -11 -7 -18z"/>
<path d="M2548 5853 c6 -2 18 -2 25 0 6 3 1 5 -13 5 -14 0 -19 -2 -12 -5z"/>
<path d="M3080 5510 c0 -5 5 -10 10 -10 6 0 10 5 10 10 0 6 -4 10 -10 10 -5 0
-10 -4 -10 -10z"/>
<path d="M3300 5310 c0 -11 5 -20 10 -20 6 0 10 9 10 20 0 11 -4 20 -10 20 -5
0 -10 -9 -10 -20z"/>
<path d="M3380 5311 c0 -12 5 -21 10 -21 6 0 10 6 10 14 0 8 -4 18 -10 21 -5
3 -10 -3 -10 -14z"/>
<path d="M3420 5275 c0 -16 22 -30 39 -23 5 1 -2 11 -15 21 -21 16 -24 16 -24
2z"/>
<path d="M3451 5208 l-20 -33 29 -3 c22 -2 30 -9 30 -23 0 -10 7 -19 15 -19
27 0 16 34 -16 53 -18 10 -29 20 -26 24 10 9 75 -39 81 -59 4 -16 36 -27 36
-13 0 6 -98 105 -104 105 -2 0 -13 -15 -25 -32z"/>
<path d="M3620 5060 c0 -5 5 -10 11 -10 5 0 7 5 4 10 -3 6 -8 10 -11 10 -2 0
-4 -4 -4 -10z"/>
<path d="M3660 5011 c0 -5 5 -13 10 -16 6 -3 10 -2 10 4 0 5 -4 13 -10 16 -5
3 -10 2 -10 -4z"/>
<path d="M3662 4940 c0 -19 2 -27 5 -17 2 9 2 25 0 35 -3 9 -5 1 -5 -18z"/>
<path d="M3690 4948 c0 -39 17 -78 35 -78 8 0 15 -6 15 -14 0 -8 11 -38 25
-68 14 -29 25 -48 25 -43 0 18 -36 108 -68 170 -26 50 -31 56 -32 33z"/>
<path d="M3661 4886 c-9 -11 -8 -15 4 -20 8 -3 15 -13 15 -23 1 -17 1 -17 11
0 14 25 -13 64 -30 43z"/>
<path d="M4435 3719 c-4 -6 -5 -12 -2 -15 2 -3 7 2 10 11 7 17 1 20 -8 4z"/>
<path d="M4300 3563 c0 -6 8 -17 18 -24 16 -13 16 -13 2 6 -8 11 -16 22 -17
24 -2 2 -3 0 -3 -6z"/>
</g>
</svg>
